<?xml version="1.0" standalone="no"?>
<!DOCTYPE svg PUBLIC "-//W3C//DTD SVG 20010904//EN"
 "http://www.w3.org/TR/2001/REC-SVG-20010904/DTD/svg10.dtd">
<svg version="1.0" xmlns="http://www.w3.org/2000/svg"
 width="221.000000pt" height="221.000000pt" viewBox="0 0 221.000000 221.000000"
 preserveAspectRatio="xMidYMid meet">
<metadata>
Created by potrace 1.11, written by Peter Selinger 2001-2013
</metadata>
<g transform="translate(0.000000,221.000000) scale(0.100000,-0.100000)"
fill="#000000" stroke="none">
<path d="M1115 2123 c-63 -3 -102 -8 -107 -16 -6 -9 -8 -9 -8 1 0 6 -5 12 -11
12 -7 0 -10 -19 -7 -52 3 -53 3 -53 -28 -56 -31 -3 -31 -2 -38 47 -6 48 -17
63 -30 42 -4 -5 -24 -12 -47 -16 -22 -4 -53 -13 -67 -21 -15 -8 -34 -14 -43
-14 -9 0 -22 -7 -29 -15 -7 -8 -19 -15 -27 -15 -14 0 -43 -23 -43 -35 0 -3 8
-2 18 3 9 5 33 9 53 11 19 1 50 6 68 11 34 9 140 -3 150 -18 3 -4 20 -14 38
-21 36 -14 73 -7 73 15 0 9 10 14 28 13 15 0 21 -3 14 -6 -6 -2 -10 -9 -6 -14
3 -5 -2 -9 -10 -9 -8 0 -18 -9 -21 -20 -4 -11 -11 -18 -16 -15 -5 3 -18 1 -29
-5 -16 -9 -18 -8 -14 5 5 11 -1 15 -25 15 -23 0 -29 -4 -25 -15 4 -10 0 -15
-13 -15 -11 0 -30 -9 -42 -19 -13 -11 -37 -23 -54 -27 -25 -5 -34 -2 -45 15
-21 31 -35 26 -27 -10 8 -36 -10 -32 -25 5 -6 15 -9 5 -9 -39 l-1 -60 -75 -70
c-42 -39 -75 -77 -75 -88 0 -10 -9 -21 -19 -24 -23 -6 -32 -39 -28 -101 3 -45
-4 -59 -26 -45 -6 4 -19 6 -28 5 -9 -2 -34 6 -55 17 -54 27 -104 36 -104 19 0
-23 16 -39 52 -51 19 -7 60 -28 91 -47 63 -39 76 -65 69 -139 -3 -34 -1 -42 8
-36 9 5 11 4 6 -4 -4 -6 -1 -23 8 -36 9 -13 16 -33 16 -45 0 -11 3 -19 8 -19
34 6 49 -4 59 -35 9 -28 8 -36 -3 -40 -22 -9 -16 -30 20 -69 35 -38 70 -48 80
-22 7 18 27 20 23 3 -1 -7 19 -24 46 -37 26 -13 47 -29 47 -35 0 -14 38 -49
63 -59 9 -3 17 -11 17 -17 0 -5 7 -10 16 -10 9 0 25 -11 36 -25 42 -54 118
-64 118 -15 0 11 5 20 10 20 6 0 10 -6 10 -13 0 -16 106 -6 182 18 63 20 68
19 68 -10 0 -15 -6 -25 -14 -25 -21 0 -40 -27 -24 -34 7 -3 -17 -2 -54 1 l-68
6 0 -26 c0 -17 -8 -31 -21 -38 -17 -9 -19 -13 -8 -20 11 -6 9 -9 -6 -15 -11
-5 -20 -3 -23 4 -2 7 -24 12 -52 12 -28 0 -50 5 -52 12 -3 9 -15 9 -50 0 -60
-15 -168 -16 -168 -1 0 6 -7 8 -16 5 -8 -3 -12 -2 -9 4 10 16 -31 11 -45 -5
-13 -16 -50 -21 -50 -6 0 5 8 12 18 16 16 7 15 8 -3 15 -19 8 -19 9 1 9 17 1
23 9 28 36 10 52 -4 69 -58 70 -35 0 -52 7 -74 28 -37 35 -56 36 -48 0 8 -30
38 -57 108 -95 l49 -27 -35 -6 c-40 -8 -57 1 -163 88 -66 54 -72 62 -66 88 3
17 0 35 -7 44 -12 14 -15 14 -32 -2 -10 -9 -26 -18 -36 -19 -9 -1 -25 -5 -34
-9 -12 -5 -20 -2 -25 10 -3 10 -19 30 -34 44 l-27 26 20 25 c31 38 3 36 -45
-4 -49 -40 -68 -44 -88 -20 -12 15 -7 23 40 64 30 27 55 57 56 69 1 11 -2 18
-7 15 -4 -3 -9 3 -10 13 0 10 -2 23 -2 30 -1 6 -4 15 -8 18 -4 4 -4 13 -1 21
3 8 -1 22 -9 32 -22 25 -29 50 -15 56 7 2 5 5 -4 5 -12 1 -15 8 -11 26 2 14
-1 37 -7 53 -5 15 -12 55 -13 89 -2 35 -6 63 -9 63 -3 0 -4 14 -1 30 2 17 9
30 14 30 5 0 43 16 84 36 68 33 88 54 64 69 -10 6 -14 4 -97 -39 -29 -15 -53
-24 -53 -20 0 4 -7 -1 -15 -12 -8 -10 -15 -15 -15 -10 0 18 -30 -18 -30 -37 0
-11 -9 -39 -19 -61 -33 -71 -53 -202 -42 -278 5 -37 12 -72 15 -77 4 -5 11
-57 16 -114 6 -58 17 -123 25 -146 19 -56 85 -185 97 -192 6 -4 7 -13 3 -20
-5 -8 -5 -11 0 -7 9 8 34 -32 28 -44 -6 -11 -58 44 -80 84 -10 18 -21 35 -24
38 -3 3 -14 20 -23 38 -9 17 -21 32 -26 32 -13 0 -14 6 19 -96 48 -148 95
-226 204 -341 178 -188 381 -278 705 -313 134 -15 259 -7 432 29 102 21 128
31 255 92 146 71 309 227 387 369 56 101 113 310 124 449 2 31 9 89 15 129 26
160 -16 356 -110 517 -48 83 -228 261 -316 312 -166 97 -294 141 -440 154 -55
4 -104 7 -110 6 -5 0 -55 -3 -110 -4z m275 -17 c0 -3 -4 -8 -10 -11 -5 -3 -10
-1 -10 4 0 6 5 11 10 11 6 0 10 -2 10 -4z m-187 -133 c-7 -2 -19 -2 -25 0 -7
3 -2 5 12 5 14 0 19 -2 13 -5z m-53 -17 c0 -3 -4 -8 -10 -11 -5 -3 -10 -1 -10
4 0 6 5 11 10 11 6 0 10 -2 10 -4z m480 -6 c0 -5 -5 -10 -11 -10 -5 0 -7 5 -4
10 3 6 8 10 11 10 2 0 4 -4 4 -10z m-423 -11 c9 -9 7 -21 -8 -48 -10 -19 -19
-47 -19 -62 0 -32 -6 -38 -31 -32 -23 6 -26 54 -5 104 21 51 39 62 63 38z
m373 -24 c-13 -14 -26 -22 -29 -19 -3 3 5 14 18 25 33 27 39 24 11 -6z m-322
-10 c-3 -3 -9 2 -12 12 -6 14 -5 15 5 6 7 -7 10 -15 7 -18z m282 -135 c0 -5 7
-10 15 -10 9 0 18 -7 21 -15 3 -8 14 -17 24 -20 25 -8 77 -78 62 -83 -8 -2 -6
-9 7 -20 10 -10 30 -38 45 -65 23 -41 25 -48 11 -53 -19 -8 -15 -11 -54 50
-38 61 -41 43 -4 -22 36 -64 53 -82 75 -82 11 0 17 -4 14 -9 -4 -5 1 -37 10
-72 16 -64 13 -157 -7 -170 -5 -3 -10 -22 -11 -43 -1 -25 -5 -35 -14 -32 -7 3
-14 -8 -18 -29 -8 -39 -24 -54 -38 -34 -7 10 -8 8 -5 -8 3 -12 2 -22 -2 -21
-3 1 -19 -4 -35 -11 -39 -16 -44 -7 -18 29 12 16 22 38 22 49 0 10 6 21 14 24
9 4 12 14 9 25 -3 15 2 22 19 27 52 16 54 39 7 86 -12 12 -19 33 -19 59 0 22
-4 40 -8 40 -4 0 -14 17 -21 38 -7 20 -21 55 -31 77 -10 22 -36 96 -58 165
-22 69 -41 119 -41 113 -2 -21 -21 -14 -21 7 0 15 7 20 25 20 14 0 25 -4 25
-10z m-50 -57 c0 -13 -90 -66 -98 -58 -4 4 -2 9 4 12 5 2 26 14 45 28 36 25
49 30 49 18z m477 -8 c8 -22 1 -26 -59 -31 -29 -3 -58 -7 -65 -9 -6 -2 -17 2
-23 10 -14 17 1 27 55 36 67 11 85 10 92 -6z m-1317 -55 c0 -5 -4 -10 -10 -10
-5 0 -10 5 -10 10 0 6 5 10 10 10 6 0 10 -4 10 -10z m-511 -245 c2 -59 0 -65
-19 -65 -18 0 -20 6 -20 64 0 42 4 66 13 69 21 8 24 0 26 -68z m1042 5 c113
-21 238 -107 255 -174 13 -54 -69 -137 -173 -176 -109 -41 -255 -35 -353 15
-50 25 -140 117 -140 142 0 42 67 115 136 149 103 50 178 62 275 44z m267 -31
c-3 -8 -7 -3 -11 10 -4 17 -3 21 5 13 5 -5 8 -16 6 -23z m-865 -106 c9 -16 18
-123 10 -123 -21 1 -32 20 -38 73 -6 48 -5 57 8 57 9 0 18 -3 20 -7z m1313
-58 c-2 -19 -8 -40 -12 -47 -5 -7 -9 -20 -9 -28 0 -9 -7 -14 -20 -12 -27 5
-27 5 -11 38 8 16 19 41 25 57 15 39 32 34 27 -8z m-1161 -126 c4 -5 0 -18 -8
-27 -9 -9 -18 -29 -22 -44 -9 -36 -25 -48 -53 -37 -18 7 -21 13 -16 36 13 55
80 104 99 72z m925 -109 c0 -5 -7 -7 -15 -4 -8 4 -12 10 -9 15 6 11 24 2 24
-11z m-231 -47 c16 -35 14 -35 -22 0 -19 18 -32 35 -30 39 6 12 41 -14 52 -39z
m531 -33 c11 -21 20 -46 20 -55 0 -28 -26 -15 -40 20 -8 19 -17 35 -22 35 -4
0 -8 9 -8 20 0 34 28 22 50 -20z m-910 -6 c15 -39 12 -100 -5 -114 -12 -10
-21 -10 -40 -2 -21 10 -25 19 -25 51 0 56 15 91 40 91 13 0 24 -10 30 -26z
m500 2 c0 -21 -26 -56 -33 -45 -12 17 -25 59 -17 54 5 -3 10 -1 10 4 0 6 9 11
20 11 14 0 20 -7 20 -24z m-85 -76 c18 -20 18 -21 -5 -12 -13 5 -26 14 -28 20
-6 19 13 14 33 -8z m665 10 c0 -5 -4 -10 -10 -10 -5 0 -10 -8 -10 -17 -1 -23
-36 -70 -46 -60 -4 4 -1 15 7 24 8 10 21 30 29 46 13 27 30 36 30 17z m-720
-20 c0 -5 -9 -10 -21 -10 -11 0 -17 5 -14 10 3 6 13 10 21 10 8 0 14 -4 14
-10z m-53 -156 c3 -8 -11 -7 -44 3 -75 23 -95 32 -88 43 7 11 127 -30 132 -46z
m241 44 c15 -15 16 -154 2 -163 -6 -3 -19 -4 -29 0 -15 5 -19 19 -23 83 -5 75
0 91 28 92 5 0 15 -5 22 -12z m-1371 -110 c-3 -8 -6 -5 -6 6 -1 11 2 17 5 13
3 -3 4 -12 1 -19z m1553 -108 c0 -5 -8 -10 -17 -10 -15 0 -16 2 -3 10 19 12
20 12 20 0z"/>
<path d="M550 1960 c0 -5 6 -10 14 -10 8 0 18 5 21 10 3 6 -3 10 -14 10 -12 0
-21 -4 -21 -10z"/>
<path d="M437 1853 c-3 -5 -10 -28 -17 -51 -9 -36 -15 -43 -31 -39 -22 6 -23
3 -9 -24 6 -10 21 -19 34 -19 19 0 25 9 37 53 8 28 13 60 11 70 -4 17 -17 23
-25 10z"/>
<path d="M439 1236 c-5 -5 -51 -13 -121 -23 -77 -10 -44 -23 58 -23 92 0 95 1
92 22 -3 20 -19 34 -29 24z"/>
<path d="M621 844 c0 -11 3 -14 6 -6 3 7 2 16 -1 19 -3 4 -6 -2 -5 -13z"/>
</g>
</svg>
