<?xml version="1.0" encoding="UTF-8"?>
<svg width="237px" height="98px" viewBox="0 0 237 98" version="1.1" xmlns="http://www.w3.org/2000/svg" xmlns:xlink="http://www.w3.org/1999/xlink">
    <title>Combined Shape</title>
    <g id="UI-Variants" stroke="none" stroke-width="1" fill="none" fill-rule="evenodd">
        <g id="Home-Copy-30" transform="translate(-69.000000, -141.000000)" fill="#fff">
            <path d="M87.3909991,145.860363 C89.1690461,147.286819 90.3192344,149.215519 90.8415985,151.646521 L85.3869391,151.646521 C84.9851206,150.662066 84.3673339,149.888577 83.5335604,149.326031 C82.6997869,148.763485 81.7103236,148.482216 80.5651408,148.482216 C79.0583213,148.482216 77.8428384,149.034708 76.9186558,150.139709 C75.9944731,151.24471 75.5323887,152.721371 75.5323887,154.569737 C75.5323887,156.418102 75.9944731,157.88974 76.9186558,158.984696 C77.8428384,160.079651 79.0583213,160.627121 80.5651408,160.627121 C81.7103236,160.627121 82.6997869,160.345852 83.5335604,159.783306 C84.3673339,159.22076 84.9851206,158.457316 85.3869391,157.492952 L90.8415985,157.492952 C90.3192344,159.903863 89.1690461,161.827541 87.3909991,163.264042 C85.6129521,164.700543 83.3678246,165.418783 80.6555495,165.418783 C78.586184,165.418783 76.7679824,164.961721 75.2008901,164.047584 C73.6337978,163.133447 72.4233376,161.852669 71.5694732,160.205213 C70.7156088,158.557757 70.288683,156.679284 70.288683,154.569737 C70.288683,152.460189 70.7156088,150.581716 71.5694732,148.93426 C72.4233376,147.286804 73.6337978,146.006026 75.2008901,145.091889 C76.7679824,144.177752 78.586184,143.72069 80.6555495,143.72069 C83.3678246,143.72069 85.6129521,144.433907 87.3909991,145.860363 Z M106.075468,149.25069 C107.391423,149.943827 108.426091,150.943336 109.1795,152.249246 C109.93291,153.555156 110.309609,155.082044 110.309609,156.829955 C110.309609,158.577865 109.93291,160.104753 109.1795,161.410663 C108.426091,162.716573 107.391423,163.716082 106.075468,164.409219 C104.759512,165.102356 103.267783,165.448919 101.600236,165.448919 C99.9326892,165.448919 98.4359376,165.102356 97.1099364,164.409219 C95.7839352,163.716082 94.7442454,162.716573 93.9908356,161.410663 C93.2374258,160.104753 92.8607266,158.577865 92.8607266,156.829955 C92.8607266,155.082044 93.2374258,153.555156 93.9908356,152.249246 C94.7442454,150.943336 95.7839352,149.943827 97.1099364,149.25069 C98.4359376,148.557553 99.9326892,148.21099 101.600236,148.21099 C103.267783,148.21099 104.759512,148.557553 106.075468,149.25069 Z M99.1139964,153.74099 C98.4409503,154.454218 98.1044323,155.483862 98.1044323,156.829955 C98.1044323,158.176047 98.4409503,159.200669 99.1139964,159.903851 C99.7870424,160.607033 100.615781,160.958619 101.600236,160.958619 C102.584692,160.958619 103.408407,160.607033 104.071408,159.903851 C104.734408,159.200669 105.065904,158.176047 105.065904,156.829955 C105.065904,155.483862 104.734408,154.454218 104.071408,153.74099 C103.408407,153.027762 102.584692,152.671153 101.600236,152.671153 C100.615781,152.671153 99.7870424,153.027762 99.1139964,153.74099 Z M120.631272,149.145213 C121.645863,148.542486 122.745825,148.241126 123.93119,148.241126 L123.93119,153.756058 L122.454514,153.756058 C121.088331,153.756058 120.028551,154.047372 119.275141,154.630009 C118.521731,155.212646 118.145032,156.197087 118.145032,157.583361 L118.145032,165.237965 L112.991735,165.237965 L112.991735,148.421944 L118.145032,148.421944 L118.145032,151.586249 C118.787941,150.561612 119.61668,149.747941 120.631272,149.145213 Z M133.740536,149.145213 C134.755128,148.542486 135.855089,148.241126 137.040454,148.241126 L137.040454,153.756058 L135.563778,153.756058 C134.197595,153.756058 133.137815,154.047372 132.384405,154.630009 C131.630995,155.212646 131.254296,156.197087 131.254296,157.583361 L131.254296,165.237965 L126.100999,165.237965 L126.100999,148.421944 L131.254296,148.421944 L131.254296,151.586249 C131.897206,150.561612 132.725944,149.747941 133.740536,149.145213 Z M155.031789,157.764178 L143.369064,157.764178 C143.429337,159.029906 143.750787,159.939007 144.333424,160.491508 C144.916061,161.044008 145.659414,161.320254 146.563506,161.320254 C147.326961,161.320254 147.959816,161.129393 148.462089,160.747666 C148.964362,160.365938 149.295858,159.873718 149.456585,159.27099 L154.911244,159.27099 C154.690244,160.456355 154.208069,161.516135 153.464705,162.450363 C152.721341,163.384591 151.777081,164.117899 150.631898,164.650309 C149.486715,165.182718 148.210961,165.448919 146.804596,165.448919 C145.15714,165.448919 143.695547,165.102356 142.419773,164.409219 C141.143999,163.716082 140.14449,162.716573 139.421217,161.410663 C138.697944,160.104753 138.336312,158.577865 138.336312,156.829955 C138.336312,155.061953 138.692921,153.530043 139.406149,152.234178 C140.119377,150.938313 141.118885,149.943827 142.404705,149.25069 C143.690524,148.557553 145.15714,148.21099 146.804596,148.21099 C148.472143,148.21099 149.938758,148.552531 151.204487,149.235622 C152.470215,149.918714 153.449633,150.878041 154.14277,152.113633 C154.835907,153.349225 155.18247,154.770637 155.18247,156.377911 C155.18247,156.79982 155.132244,157.261905 155.031789,157.764178 Z M149.079882,153.108129 C148.467109,152.555628 147.708688,152.279382 146.804596,152.279382 C145.860322,152.279382 145.076788,152.560651 144.453969,153.123197 C143.83115,153.685743 143.479564,154.509459 143.399201,155.594369 L149.968901,155.594369 C149.988992,154.489368 149.692655,153.660629 149.079882,153.108129 Z M170.913588,150.004096 C172.380225,151.199506 173.304394,152.841915 173.686122,154.931371 L168.231462,154.931371 C168.070735,154.208098 167.73924,153.645561 167.236966,153.243742 C166.734693,152.841924 166.101839,152.641017 165.338383,152.641017 C164.434292,152.641017 163.690938,152.997626 163.108302,153.710854 C162.525665,154.424082 162.234351,155.463772 162.234351,156.829955 C162.234351,158.196138 162.525665,159.235827 163.108302,159.949055 C163.690938,160.662283 164.434292,161.018892 165.338383,161.018892 C166.101839,161.018892 166.734693,160.817986 167.236966,160.416167 C167.73924,160.014349 168.070735,159.451811 168.231462,158.728538 L173.686122,158.728538 C173.304394,160.817994 172.380225,162.460403 170.913588,163.655813 C169.44695,164.851223 167.628748,165.448919 165.458928,165.448919 C163.811472,165.448919 162.349879,165.102356 161.074105,164.409219 C159.798331,163.716082 158.798823,162.716573 158.07555,161.410663 C157.352276,160.104753 156.990645,158.577865 156.990645,156.829955 C156.990645,155.061953 157.347253,153.530043 158.060481,152.234178 C158.773709,150.938313 159.773218,149.943827 161.059037,149.25069 C162.344857,148.557553 163.811472,148.21099 165.458928,148.21099 C167.628748,148.21099 169.44695,148.808686 170.913588,150.004096 Z M185.891299,160.807938 L185.891299,165.237965 L183.570808,165.237965 C181.601898,165.237965 180.069987,164.750768 178.975032,163.776358 C177.880076,162.801948 177.332607,161.189675 177.332607,158.939491 L177.332607,152.761562 L175.072389,152.761562 L175.072389,148.421944 L177.332607,148.421944 L177.332607,144.293279 L182.485904,144.293279 L182.485904,148.421944 L185.861163,148.421944 L185.861163,152.761562 L182.485904,152.761562 L182.485904,159.0299 C182.485904,159.692901 182.621515,160.154985 182.892743,160.416167 C183.16397,160.677349 183.621032,160.807938 184.263942,160.807938 L185.891299,160.807938 Z M189.146013,141.746767 C189.708559,141.234448 190.451912,140.978292 191.376094,140.978292 C192.300277,140.978292 193.04363,141.234448 193.606176,141.746767 C194.168722,142.259085 194.449991,142.907008 194.449991,143.690554 C194.449991,144.454009 194.168722,145.091887 193.606176,145.604205 C193.04363,146.116524 192.300277,146.372679 191.376094,146.372679 C190.451912,146.372679 189.708559,146.116524 189.146013,145.604205 C188.583467,145.091887 188.302198,144.454009 188.302198,143.690554 C188.302198,142.907008 188.583467,142.259085 189.146013,141.746767 Z M193.937675,148.421944 L193.937675,165.237965 L188.784378,165.237965 L188.784378,148.421944 L193.937675,148.421944 Z M306,188.414169 L306,189.849228 C304.995454,190.136241 304.098551,190.746135 303.309264,191.678928 C302.519978,192.611721 301.766579,194.058725 301.049046,196.019982 L288.205268,232.111717 C287.248557,234.599165 286.196191,236.297301 285.048138,237.206176 C283.660907,238.402065 281.580093,239 278.805631,239 C276.796539,239 274.990774,238.509693 273.388283,237.529064 C271.785793,236.548436 270.984559,235.12535 270.984559,233.259764 C270.984559,231.776862 271.510743,230.59295 272.563124,229.707993 C273.615506,228.823035 275.002716,228.380563 276.724796,228.380563 C278.351204,228.380563 279.654703,228.7752 280.635332,229.564487 C281.61596,230.353773 282.106267,231.465933 282.106267,232.900999 C282.106267,233.905545 281.795341,234.826366 281.173479,235.663488 C280.551617,236.50061 279.666672,237.134421 278.518619,237.564941 C278.853468,237.612777 279.403569,237.636694 280.168937,237.636694 C283.134741,237.636694 285.311225,235.747218 286.698456,231.968211 L287.846503,228.524069 L272.634877,193.939146 C271.869509,192.312738 271.128069,191.236454 270.410536,190.710263 C269.693003,190.184072 268.951563,189.920981 268.186194,189.920981 L268.186194,188.414169 C271.34334,188.701182 274.620025,188.844687 278.016349,188.844687 C280.838646,188.844687 284.163166,188.701182 287.990009,188.414169 L287.990009,189.920981 C286.459272,189.920981 285.323195,190.028609 284.581744,190.243869 C283.840293,190.459129 283.469573,191.021188 283.469573,191.930064 C283.469573,192.456255 283.636995,193.125942 283.971844,193.939146 L292.725704,215.106267 L297.676658,201.3297 C298.442026,199.08143 298.824705,197.168037 298.824705,195.589464 C298.824705,192.09747 297.054816,190.184077 293.514986,189.849228 L293.514986,188.414169 C295.763257,188.557676 298.083246,188.629428 300.475023,188.629428 C302.8668,188.629428 304.70844,188.557676 306,188.414169 Z M154.529519,187.409628 C163.5226,187.409628 168.019074,192.719293 168.019074,203.338783 L147.856494,203.338783 C147.808659,204.056316 147.784741,205.180434 147.784741,206.711172 C147.784741,209.868317 148.227213,212.499233 149.112171,214.603996 C149.997128,216.70876 151.145164,218.239474 152.556312,219.196185 C153.967461,220.152896 155.486217,220.631244 157.112625,220.631244 C161.035139,220.631244 164.192238,218.717851 166.584015,214.891008 L167.875568,215.321526 C166.918857,218.430836 165.208762,221.07371 162.745232,223.250227 C160.281701,225.426744 157.208314,226.514986 153.524977,226.514986 C148.45441,226.514986 144.424326,224.900561 141.434605,221.671662 C138.444884,218.442763 136.950045,213.67124 136.950045,207.356948 C136.950045,200.89915 138.552512,195.960205 141.757493,192.539964 C144.962474,189.119723 149.219774,187.409628 154.529519,187.409628 Z M190.693006,187.409628 C199.686088,187.409628 204.182561,192.719293 204.182561,203.338783 L184.019982,203.338783 C183.972146,204.056316 183.948229,205.180434 183.948229,206.711172 C183.948229,209.868317 184.390701,212.499233 185.275658,214.603996 C186.160616,216.70876 187.308652,218.239474 188.7198,219.196185 C190.130949,220.152896 191.649704,220.631244 193.276113,220.631244 C197.198627,220.631244 200.355725,218.717851 202.747502,214.891008 L204.039055,215.321526 C203.082345,218.430836 201.37225,221.07371 198.908719,223.250227 C196.445189,225.426744 193.371802,226.514986 189.688465,226.514986 C184.617898,226.514986 180.587814,224.900561 177.598093,221.671662 C174.608371,218.442763 173.113533,213.67124 173.113533,207.356948 C173.113533,200.89915 174.716,195.960205 177.920981,192.539964 C181.125962,189.119723 185.383261,187.409628 190.693006,187.409628 Z M139.748411,174.709355 L139.748411,176.144414 C138.552522,176.62277 137.392528,177.54359 136.268392,178.906903 C135.144257,180.270216 134.199519,182.195567 133.434151,184.683015 L120.805631,225.653951 C120.27944,225.606115 119.442331,225.582198 118.294278,225.582198 C117.146225,225.582198 116.309116,225.606115 115.782925,225.653951 L105.235241,193.652134 L94.6158038,225.653951 C94.0896129,225.606115 93.2525035,225.582198 92.1044505,225.582198 C90.9563975,225.582198 90.1192881,225.606115 89.5930972,225.653951 L73.520436,180.736603 C72.9464095,179.15803 72.2528046,178.009995 71.4396004,177.292461 C70.6263962,176.574928 69.8132042,176.19225 69,176.144414 L69,174.709355 C71.8701324,174.852862 75.4338267,174.924614 79.6911898,174.924614 C83.7093752,174.924614 86.6512168,174.852862 88.5168029,174.709355 L88.5168029,176.144414 C86.842559,176.383592 86.0054496,177.316371 86.0054496,178.942779 C86.0054496,179.708148 86.2207063,180.784431 86.6512262,182.171662 L97.1271571,212.523161 L104.374205,191.140781 L100.714805,180.019074 C100.236449,178.631843 99.6743901,177.663188 99.0286104,177.113079 C98.3828306,176.56297 97.6294321,176.240085 96.7683924,176.144414 L96.7683924,174.709355 C99.4471826,174.852862 102.867372,174.924614 107.029064,174.924614 C111.716947,174.924614 115.161055,174.852862 117.36149,174.709355 L117.36149,176.144414 C115.63941,176.19225 114.395705,176.395548 113.630336,176.754314 C112.864967,177.113081 112.482289,177.794727 112.482289,178.799273 C112.482289,179.660313 112.721463,180.784431 113.199818,182.171662 L123.029973,212.164396 L129.846503,190.495005 C130.946721,186.907339 131.496821,184.132919 131.496821,182.171662 C131.496821,180.114734 130.982597,178.619896 129.954133,177.687103 C128.925668,176.75431 127.382995,176.240085 125.326067,176.144414 L125.326067,174.709355 C128.578884,174.852862 131.544643,174.924614 134.223433,174.924614 C136.471704,174.924614 138.313344,174.852862 139.748411,174.709355 Z M263.235241,169.327884 L263.235241,218.837421 C263.235241,220.798678 263.570084,222.150011 264.239782,222.891462 C264.90948,223.632913 266.10535,224.003633 267.82743,224.003633 L267.82743,225.510445 C263.013014,225.325275 259.856212,225.229705 258.356937,225.223732 L258.212534,225.223433 C256.609823,225.223433 253.381349,225.316335 248.527018,225.502142 L248.525886,225.510445 L248.431666,225.505796 C248.391431,225.507339 248.351084,225.508889 248.310627,225.510445 L248.31,225.499292 L248.106094,225.489579 C244.652948,225.318972 242.327642,225.230389 241.130115,225.223827 L240.991826,225.223433 C239.413253,225.223433 236.327907,225.319103 231.735695,225.510445 L231.735695,224.003633 C232.405392,224.003633 232.931575,223.884046 233.31426,223.644868 C233.696944,223.405691 233.888283,223.070847 233.888283,222.640327 C233.888283,222.401149 233.768696,222.042388 233.529519,221.564033 L226.425976,208.720254 C225.947621,207.90705 225.445355,207.35695 224.919164,207.069936 C224.392973,206.782923 223.723286,206.591584 222.910082,206.495913 L222.910082,218.837421 C222.910082,220.798678 223.221008,222.150011 223.84287,222.891462 C224.464732,223.632913 225.58885,224.003633 227.215259,224.003633 L227.215259,225.510445 C222.586013,225.325275 219.524781,225.229705 218.031479,225.223732 L217.887375,225.223433 C216.260967,225.223433 212.960364,225.319103 207.985468,225.510445 L207.985468,224.003633 C209.659712,224.003633 210.843624,223.632913 211.537239,222.891462 C212.230854,222.150011 212.577657,220.798678 212.577657,218.837421 L212.577657,177.938238 C212.577657,175.737803 212.230854,174.135337 211.537239,173.13079 C210.843624,172.126244 209.659712,171.623978 207.985468,171.623978 L207.985468,170.117166 C209.516205,170.260673 210.999085,170.332425 212.434151,170.332425 C216.595843,170.332425 220.087785,169.997581 222.910082,169.327884 L222.910082,205.132607 C223.866793,205.036936 224.691943,204.845596 225.385559,204.558583 C226.079174,204.27157 226.689068,203.841056 227.215259,203.26703 L232.668483,197.957312 C234.247056,196.378739 235.036331,194.919777 235.036331,193.580381 C235.036331,192.480164 234.534065,191.607179 233.529519,190.961399 C232.524972,190.315619 231.185597,189.944899 229.511353,189.849228 L229.511353,188.414169 C232.142308,188.557676 234.940645,188.629428 237.906449,188.629428 C241.876799,188.629428 244.675136,188.557676 246.301544,188.414169 L246.301544,189.849228 C243.479247,190.47109 240.489571,192.312731 237.332425,195.374205 L232.740236,200.1099 L244.794732,220.27248 C245.560101,221.420533 246.181953,222.269601 246.660309,222.819709 C247.13653,223.367363 247.75497,223.76093 248.515648,224.000422 L248.310627,224.003633 C249.984871,224.003633 251.168782,223.632913 251.862398,222.891462 C252.556013,222.150011 252.902816,220.798678 252.902816,218.837421 L252.902816,177.938238 C252.902816,175.737803 252.556013,174.135337 251.862398,173.13079 C251.168782,172.126244 249.984871,171.623978 248.310627,171.623978 L248.310627,170.117166 C249.841364,170.260673 251.324244,170.332425 252.75931,170.332425 C256.921002,170.332425 260.412944,169.997581 263.235241,169.327884 Z M154.099001,188.91644 C152.376921,188.91644 150.953835,189.980764 149.8297,192.109446 C148.705565,194.238128 148.000001,197.526772 147.712988,201.975477 L158.978202,201.975477 C159.073873,198.196469 158.703153,195.075247 157.866031,192.611717 C157.028909,190.148186 155.773245,188.91644 154.099001,188.91644 Z M190.262489,188.91644 C188.540409,188.91644 187.117323,189.980764 185.993188,192.109446 C184.869053,194.238128 184.163489,197.526772 183.876476,201.975477 L195.141689,201.975477 C195.23736,198.196469 194.866641,195.075247 194.029519,192.611717 C193.192397,190.148186 191.936733,188.91644 190.262489,188.91644 Z M201.562144,148.421944 L205.268901,160.205213 L208.915386,148.421944 L214.400182,148.421944 L208.433206,165.237965 L202.044323,165.237965 L196.077348,148.421944 L201.562144,148.421944 Z" id="Combined-Shape"></path>
        </g>
    </g>
</svg>