<?xml version="1.0" encoding="UTF-8"?>
<svg width="23px" height="23px" viewBox="0 0 23 23" version="1.1" xmlns="http://www.w3.org/2000/svg" xmlns:xlink="http://www.w3.org/1999/xlink">
    <title>Shape</title>
    <g id="Symbols" stroke="none" stroke-width="1" fill="none" fill-rule="evenodd">
        <path d="M22.3261719,1.66000366 L19.3746643,1.66000366 C19.3853683,1.33309172 19.3913345,1.00424958 19.3913345,0.673828125 C19.3913345,0.301643383 19.0895157,0 18.7175064,0 L4.28249358,0 C3.9104843,0 3.60866546,0.301643383 3.60866546,0.673828125 C3.60866546,1.00424958 3.61463166,1.33309172 3.62533569,1.66000366 L0.673828125,1.66000366 C0.301643383,1.66000366 0,1.96164704 0,2.33383179 C0,5.3530731 0.789115895,8.20157624 2.22187807,10.3548431 C3.63814544,12.4835434 5.52468872,13.7045059 7.56266782,13.8233032 C8.02469636,14.3260422 8.51304624,14.7359543 9.02175139,15.0486527 L9.02175139,18.0435028 L7.89133454,18.0435028 C6.52472688,18.0435028 5.41308594,19.1553192 5.41308594,20.5217514 L5.41308594,21.6521683 L5.36518098,21.6521683 C4.99299624,21.6521683 4.69135286,21.9539871 4.69135286,22.3259964 C4.69135286,22.6981812 4.99299624,22.9998245 5.36518098,22.9998245 L17.634819,22.9998245 C18.0070038,22.9998245 18.3086471,22.6981812 18.3086471,22.3259964 C18.3086471,21.9539871 18.0070038,21.6521683 17.634819,21.6521683 L17.5869141,21.6521683 L17.5869141,20.5217514 C17.5869141,19.1553192 16.4752731,18.0435028 15.1086655,18.0435028 L13.9782486,18.0435028 L13.9782486,15.0486527 C14.4869538,14.7361297 14.9754791,14.3260422 15.4375076,13.8233032 C17.4753113,13.7045059 19.3618546,12.4835434 20.7782974,10.3548431 C22.2110596,8.20157624 23,5.3530731 23,2.33383179 C23,1.96164704 22.6983566,1.66000366 22.3261719,1.66000366 Z M3.34387207,9.60836792 C2.1620407,7.83237458 1.46768188,5.50942229 1.3618698,3.00765991 L3.70061492,3.00765991 C3.94364927,6.08305357 4.66555786,8.92576597 5.793869,11.1822128 C5.9735565,11.5415878 6.16149138,11.881134 6.35644531,12.2008514 C5.23567962,11.7776032 4.19844057,10.8928528 3.34387207,9.60836792 Z M16.2392578,20.5217514 L16.2392578,21.6523437 L6.76074219,21.6523437 L6.76074219,20.5217514 C6.76074219,19.8984604 7.26786802,19.391159 7.89133454,19.391159 L15.1086655,19.391159 C15.732132,19.391159 16.2392578,19.8984604 16.2392578,20.5217514 Z M12.6305924,18.0435028 L10.3694076,18.0435028 L10.3694076,15.6342163 C10.7398376,15.731781 11.1172867,15.7824936 11.5,15.7824936 C11.8827133,15.7824936 12.2601624,15.731781 12.6305924,15.6342163 L12.6305924,18.0435028 Z M13.0478744,14.0310669 C13.0175171,14.0435257 12.988388,14.0586166 12.9604874,14.0752869 C12.4842453,14.3121795 11.9948425,14.4348373 11.5,14.4348373 C11.0053329,14.4348373 10.5161056,14.3121795 10.0400391,14.0756378 C10.0117874,14.0586166 9.98248291,14.0435257 9.95177459,14.030716 C9.42341616,13.7513581 8.91225432,13.3295135 8.42881773,12.7751846 C8.40337371,12.7388611 8.37477114,12.7053451 8.34300994,12.6748123 C7.86308286,12.1050415 7.41158294,11.4041901 6.99921418,10.5794525 C5.76087954,8.10295867 5.04563902,4.84664917 4.96421812,1.34765625 L18.0357819,1.34765625 C17.9541855,4.84664917 17.238945,8.10313413 16.0007858,10.5794525 C15.5884171,11.4041901 15.1369171,12.1050415 14.6571655,12.6748123 C14.6252289,12.7053451 14.5962753,12.7390365 14.5710068,12.7753601 C14.0875702,13.3298645 13.5762329,13.7515335 13.0478744,14.0310669 Z M19.6561279,9.60836792 C18.8015594,10.8928528 17.7643204,11.7776032 16.6435547,12.2008514 C16.8385086,11.881134 17.0264435,11.5415878 17.206131,11.1822128 C18.3344421,8.92576597 19.0561752,6.08305357 19.2993851,3.00765991 L21.6381302,3.00765991 C21.5323181,5.50942229 20.8379593,7.83237458 19.6561279,9.60836792 Z" id="Shape" fill="#FFFFFF" fill-rule="nonzero"></path>
    </g>
</svg>