<?xml version="1.0" encoding="UTF-8"?>
<svg width="25px" height="25px" viewBox="0 0 25 25" version="1.1" xmlns="http://www.w3.org/2000/svg" xmlns:xlink="http://www.w3.org/1999/xlink">
    <title>Shape</title>
    <g id="Symbols" stroke="none" stroke-width="1" fill="none" fill-rule="evenodd">
        <path d="M21.3388443,3.66115571 C18.9779282,1.30023955 15.8388138,0 12.5,0 C9.16099551,0 6.02207183,1.30023955 3.66115571,3.66115571 C1.30023955,6.02207183 0,9.16099551 0,12.5 C0,15.8388138 1.30023955,18.9779282 3.66115571,21.3388443 C6.02207183,23.6997604 9.16099551,25 12.5,25 C15.8388138,25 18.9779282,23.6997604 21.3388443,21.3388443 C23.6997604,18.9779282 25,15.8388138 25,12.5 C25,9.16099551 23.6997604,6.02207183 21.3388443,3.66115571 Z M6.26659395,21.600914 C6.78939819,18.5907364 9.39788818,16.3703918 12.5,16.3703918 C15.6023025,16.3703918 18.2106018,18.5907364 18.7334061,21.600914 C16.9586182,22.820282 14.8113251,23.5351563 12.5,23.5351563 C10.1886749,23.5351563 8.04138184,22.820282 6.26659395,21.600914 Z M8.52546689,10.931015 C8.52546689,8.73928071 10.3084564,6.95648193 12.5,6.95648193 C14.6915436,6.95648193 16.4745331,8.73947144 16.4745331,10.931015 C16.4745331,13.1225586 14.6915436,14.9055481 12.5,14.9055481 C10.3084564,14.9055481 8.52546689,13.1225586 8.52546689,10.931015 L8.52546689,10.931015 Z M20.0021744,20.5848694 C19.6079254,19.1835403 18.8249588,17.9121018 17.7274704,16.9189453 C17.0541763,16.3095474 16.2878037,15.8287048 15.4638291,15.489769 C16.9530869,14.5183563 17.9395676,12.8377915 17.9395676,10.931015 C17.9395676,7.93170928 15.4993057,5.49163818 12.5,5.49163818 C9.50069429,5.49163818 7.06062314,7.93170928 7.06062314,10.931015 C7.06062314,12.8377915 8.04710391,14.5183563 9.53617095,15.489769 C8.71238711,15.8287048 7.94582368,16.3093567 7.27252959,16.9187546 C6.17523193,17.911911 5.39207461,19.1833496 4.99782563,20.5846787 C2.82630918,18.568039 1.46484375,15.6902313 1.46484375,12.5 C1.46484375,6.41517637 6.41517637,1.46484375 12.5,1.46484375 C18.5848236,1.46484375 23.5351563,6.41517637 23.5351563,12.5 C23.5351563,15.6904221 22.1736908,18.5682297 20.0021744,20.5848694 Z" id="Shape" fill="#FFFFFF" fill-rule="nonzero"></path>
    </g>
</svg>