<?xml version="1.0" encoding="UTF-8"?>
<svg width="24px" height="24px" viewBox="0 0 24 24" version="1.1" xmlns="http://www.w3.org/2000/svg" xmlns:xlink="http://www.w3.org/1999/xlink">
    <title>Shape</title>
    <g id="Symbols" stroke="none" stroke-width="1" fill="none" fill-rule="evenodd">
        <path d="M22.5973043,10.1926522 L19.7707826,9.73065217 C19.6053043,9.16343478 19.379087,8.61821739 19.0959565,8.10217391 L20.7459565,5.75056522 C20.8793913,5.56069565 20.8564348,5.30195652 20.6923913,5.13743478 L18.8324348,3.27843478 C18.6664783,3.11295652 18.4053478,3.09143478 18.215,3.22869565 L15.8987826,4.89352174 C15.3779565,4.6056087 14.8279565,4.377 14.2573913,4.21104348 L13.7643043,1.396 C13.7241304,1.1673913 13.5256522,1 13.2932174,1 L10.6627826,1 C10.4284348,1 10.2285217,1.16978261 10.1907391,1.40126087 L9.73352174,4.201 C9.1596087,4.366 8.60865217,4.59221739 8.08973913,4.87630435 L5.77973913,3.22630435 C5.58891304,3.09 5.32921739,3.112 5.16326087,3.277 L3.30426087,5.136 C3.14021739,5.30004348 3.11726087,5.55830435 3.25069565,5.74817391 L4.87630435,8.07395652 C4.58695652,8.59765217 4.35643478,9.15195652 4.18856522,9.72873913 L1.39982609,10.1931304 C1.16930435,10.2313913 1,10.4313043 1,10.6646957 L1,13.2951304 C1,13.527087 1.16643478,13.7255652 1.39456522,13.7662174 L4.18330435,14.2607391 C4.35021739,14.836087 4.58073913,15.3903913 4.87104348,15.9155217 L3.22534783,18.2173913 C3.08952174,18.4072609 3.11104348,18.667913 3.27604348,18.8338696 L5.13552174,20.6947826 C5.29956522,20.8588261 5.55830435,20.8817826 5.74817391,20.7483478 L8.07730435,19.117 C8.60004348,19.4044348 9.15243478,19.6325652 9.72491304,19.7980435 L10.1916957,22.6011304 C10.2294783,22.8311739 10.428913,23 10.6627826,23 L13.2932174,23 C13.5251739,23 13.7236522,22.8335652 13.7638261,22.6054348 L14.2636087,19.7884783 C14.8370435,19.6196522 15.3865652,19.390087 15.9040435,19.1021739 L18.249913,20.7478696 C18.4402609,20.8822609 18.6985217,20.8588261 18.8630435,20.6947826 L20.7225217,18.8338696 C20.888,18.667913 20.9095217,18.4063043 20.7722609,18.2159565 L19.0993043,15.8930435 C19.382913,15.3765217 19.6081739,14.8303478 19.7722174,14.2631304 L22.6025652,13.7662174 C22.8316522,13.7260435 22.998087,13.527087 22.998087,13.2951304 L22.998087,10.6646957 C22.9985652,10.4303478 22.8287826,10.2304348 22.5973043,10.1926522 Z M11.9990435,15.3478261 C10.150087,15.3478261 8.65121739,13.8489565 8.65121739,12 C8.65121739,10.1510435 10.150087,8.65217391 11.9990435,8.65217391 C13.848,8.65217391 15.3468696,10.1510435 15.3468696,12 C15.3468696,13.8489565 13.848,15.3478261 11.9990435,15.3478261 Z" id="Shape" stroke="#FFFFFF" stroke-width="2" fill-rule="nonzero"></path>
    </g>
</svg>